PathFileType	4	(X/Y/Z)	Patient4_TMGait_0pt6_01_left_28.trc.trc
DataRate	CameraRate	NumFrames	NumMarkers	Units	OrigDataRate	OrigDataStartFrame	OrigNumFrames
79.545454545455	79.545454545455	6	33	mm	79.545454545455	36	       141
Frame#	Time	Sacral			L.Shoulder			Chest			R.Shoulder			Neck			R.ASIS			L.ASIS			R.Thigh.Superior			R.Thigh.Lateral			R.Thigh.Inferior			R.Patella			L.Thigh.Superior			L.Thigh.Lateral			L.Thigh.Inferior			L.Patella			L.Shank.Superior			L.Shank.Lateral			L.Shank.Inferior			R.Shank.Superior			R.Shank.Lateral			R.Shank.Inferior			R.Heel			R.Midfoot.Superior			R.Midfoot.Lateral			R.Toe			L.Heel			L.Midfoot.Lateral			L.Midfoot.Superior			L.Toe			L.Elbow			L.Wrist			R.Elbow			R.Wrist			
		X1	Y1	Z1	X2	Y2	Z2	X3	Y3	Z3	X4	Y4	Z4	X5	Y5	Z5	X6	Y6	Z6	X7	Y7	Z7	X8	Y8	Z8	X9	Y9	Z9	X10	Y10	Z10	X11	Y11	Z11	X12	Y12	Z12	X13	Y13	Z13	X14	Y14	Z14	X15	Y15	Z15	X16	Y16	Z16	X17	Y17	Z17	X18	Y18	Z18	X19	Y19	Z19	X20	Y20	Z20	X21	Y21	Z21	X22	Y22	Z22	X23	Y23	Z23	X24	Y24	Z24	X25	Y25	Z25	X26	Y26	Z26	X27	Y27	Z27	X28	Y28	Z28	X29	Y29	Z29	X30	Y30	Z30	X31	Y31	Z31	X32	Y32	Z32	X33	Y33	Z33	

36	34.460000000000	765.368988505759	1002.564561574820	480.571288197403	890.224125047306	1436.092158971236	301.521909632533	1021.831313757005	1366.936530270546	440.164033506186	965.717641421644	1430.253503786704	627.509623626851	895.511986241965	1490.264924270351	458.054849858989	1000.471130633030	930.670601796995	571.459761569922	961.038875344961	963.565363481135	300.487664245978	1001.830908742708	718.780969845904	550.180760650409	903.458024017858	623.760959434603	617.187879637415	969.551005012173	554.336593481462	541.631431447636	947.612180458487	453.728036670665	556.397141186541	1036.697972219315	766.378868909560	335.428523054878	968.733253681122	637.290980999108	277.126749016417	1065.931925365877	572.914253982991	339.233570769338	1077.807324157472	501.601692796916	347.213484610227	1056.526276728403	427.110471176186	341.694748727011	976.804771877151	304.648609358049	295.955564253777	1039.853980911769	199.061250051180	364.485775737211	877.986048102066	384.704669014139	563.443738859195	766.307689894838	327.399292447394	626.919246125614	762.463664408296	219.963545473826	570.839951869574	569.513976872641	113.223514376086	544.411977498440	748.908323215028	106.646035137421	579.896968410795	644.588531996485	69.889888337589	613.053337936894	843.204945083879	35.750048871112	597.085797951921	923.597940722047	39.424134309798	409.625801133287	996.207213431354	37.213458825073	327.839962530021	1080.031449208261	98.014515919790	352.598508136598	1207.777400464622	43.590478058294	321.764745377284	786.734111450042	1091.838255562550	211.085550658836	777.808308058047	832.464489675121	215.912534147793	1104.726481327117	1108.901305882827	725.246854515555	1354.967510224689	1128.849432658611	680.177199975937	
37	34.472571428571	765.994144742595	1003.505383044056	476.998757113352	891.653617523153	1437.749806951620	299.529263565256	1022.490344086836	1368.201420289335	438.690655632403	965.242749171829	1430.904438107080	625.851231821632	895.908270848531	1491.372169698184	456.305984026809	1000.905109978325	931.882064526299	568.529085592764	962.338887472661	964.714886948262	297.599225066004	1005.498705476010	720.348279733348	548.511961170171	908.693592679392	624.211877785837	615.698060856639	976.652424199699	555.098462843248	540.812060092437	955.496149411711	453.133389787589	556.985666103433	1036.786903609563	766.047016383557	331.731811528297	966.355591516377	637.221023865045	275.115001951008	1063.157704205627	571.988543323756	336.616069701916	1074.270761280913	500.943171368927	345.629940151221	1052.543399339999	426.505589580909	340.427507207825	971.936138582097	304.580497899571	294.865363784970	1033.720873572540	198.763722603023	364.115199422089	883.724721162962	385.288273500670	563.922247303287	770.001172854351	331.877618082302	627.181899552998	763.593695562339	223.923408400501	572.344001476796	567.486930047624	124.832261745228	546.538313902410	746.242639352905	108.754610083253	581.501036473265	640.331692540526	76.797377491920	614.370171412939	835.889969841976	35.019569225168	597.093056171474	916.127920055436	39.443286398682	409.548692115762	988.713854534503	37.173156846607	327.745278636735	1072.564788257796	98.011231799104	352.484334273947	1200.328147288698	43.424633093694	321.614922923406	793.422971221526	1091.999753197493	206.490833870263	794.235027654172	832.295197120053	209.326092561122	1097.698046517781	1105.786375995657	723.130825246335	1349.217478897408	1114.301017332462	680.738164524663	
38	34.485142857143	766.497130178609	1004.225804560050	473.538933186958	893.059139951657	1439.170608468977	297.470136498182	1023.036081308765	1369.291122285604	437.259546084278	964.523702055722	1431.388623294055	624.199011242331	896.159627139152	1492.302499996993	454.500483711310	1001.207454925186	932.963542026244	565.771155459058	963.574532841464	965.568413373929	294.937178809668	1009.527327605731	721.914322331013	546.841157014928	914.520991547002	624.505411194701	614.102455214866	984.270119038020	555.907651513409	539.641412983423	963.982702619001	452.597203568074	557.013616655292	1036.644389132807	765.349877196779	328.132037029214	963.743334235143	637.003630278485	273.099069429115	1060.129298917095	570.933713520001	334.048174150486	1070.490738576662	500.167641126420	343.965781201132	1048.331772298651	425.785385546948	339.082264818093	966.809496461781	304.382031980969	293.769820334127	1027.443010947402	198.365833728449	363.689819951827	890.175044374380	385.895248305958	564.015754245026	774.690007567132	336.481792194846	627.334792863260	765.434310761663	228.180206905399	573.677814002633	566.468756452927	137.394782793157	548.862203876272	743.987593944947	111.333989067277	582.985434981934	636.780070390215	84.715180180909	615.868351224270	828.630289670136	34.082371643482	597.169269284377	908.557113901715	39.412688314598	409.482488129528	981.119021315160	37.069590394008	327.653463935138	1065.016364631089	97.908071874284	352.399169209062	1192.799294043786	43.170902685778	321.515334283128	800.202263633312	1092.068627848411	201.634955208737	811.492706215584	832.407872169167	202.431947690117	1090.190837942826	1102.579868574239	721.010569127815	1342.545035155305	1098.517646544513	681.424307122150	
39	34.497714285714	766.847285242893	1004.731160357206	470.241870241489	894.427860066499	1440.326048116216	295.363097675246	1023.466646684766	1370.180449041397	435.881446818259	963.596078730068	1431.708006823385	622.568330729774	896.282934501173	1493.051640216530	452.651083173402	1001.347378771200	933.897672598675	563.208460324373	964.686544952288	966.146355163102	292.513372747353	1013.845049531799	723.506567872949	545.081658774461	920.951490672980	624.673884348847	612.354817248446	992.353005068017	556.814652170834	538.016844983893	973.066552374474	452.161114850687	556.372011585721	1036.263287895142	764.380334968249	324.750858095660	961.020807075977	636.707525042375	271.091213977110	1056.921562287790	569.814026411589	331.602607818151	1066.528087629054	499.308272074913	342.258936596900	1043.950902909113	424.979937322753	337.687371391104	961.502118524078	304.090366964666	292.668445676259	1021.065690943451	197.891654107280	363.213246509127	897.323447774120	386.556134820013	563.638705591716	780.378860890243	341.211345099063	627.316663607488	768.005451854564	232.753875198604	574.769512307962	566.557160575673	150.836433514822	551.318390034818	742.215530200474	114.480384190263	584.292201011890	634.065684522129	93.656487034951	617.510383632176	821.536680488229	32.966028925626	597.311229961061	900.924569947947	39.350056629124	409.415163158505	973.462322648192	36.927520943012	327.555137418160	1057.419942536947	97.734986939605	352.329621445544	1185.222615470463	42.862678652851	321.449426020468	807.143268944964	1092.014267757114	196.537353519560	829.498701831419	832.848193742250	195.295141700192	1082.245134619825	1099.309782927371	718.909889855447	1334.816774780006	1081.642535711085	682.201781764124	
40	34.510285714286	767.017776128661	1005.049142440927	467.145291270439	895.735639492737	1441.214689864568	293.234903492005	1023.777616776235	1370.866155997237	434.563072352261	962.503318572470	1431.884027377946	620.973475345892	896.299330664503	1493.634689757934	450.774077640372	1001.297508873504	934.688119389586	560.857188098742	965.622231830978	966.494855150923	290.327114413099	1018.356171512867	725.172333256424	543.153154346173	927.967589009840	624.779391526552	610.433594587991	1000.830905565662	557.888303584520	535.882938760740	982.728425321398	451.890427071194	555.021976913326	1035.648631374467	763.244544298213	321.673131079371	958.268514229976	636.390809320710	269.117832615821	1053.588775430824	568.682579331698	329.335523779666	1062.430738446496	498.399422956667	340.561600261356	1039.445728292851	424.123385058203	336.283131489084	956.075665441818	303.745547393203	291.572799148765	1014.623144636485	197.369299311711	362.699151263301	905.144698487378	387.318265509989	562.752580407394	787.039774354012	346.069760622741	627.077345200577	771.329897146898	237.653856008128	575.562938224280	567.832179910134	165.001927058851	553.810340276949	741.037735737000	118.260855235189	585.372266798452	632.327458255109	103.552013796926	619.229209443145	814.781346930374	31.748815374654	597.498712840039	893.263991526390	39.271617538292	409.337852679279	965.778080689586	36.769480070331	327.444557817115	1049.802838208385	97.523388244965	352.263144608963	1177.623999420686	42.534935112427	321.399823758012	814.329650061618	1091.832431503845	191.226517532317	848.170951851789	833.673361721308	187.988266017837	1073.896859409866	1096.021483970285	716.854478252752	1325.888679239367	1063.841344490114	683.030190392953	
41	34.522857142857	766.989806903360	1005.224222663160	464.271686023539	896.952105020222	1441.858667986767	291.115692298594	1023.963291296681	1371.365784066345	433.307137846492	961.288976927252	1431.953577265207	619.425945039843	896.231678071200	1494.082053087107	448.886107910239	1001.037089663813	935.356600133055	558.730867727333	966.344204470036	966.675980694131	288.370781331095	1022.951243300726	726.972373553699	540.996778531664	935.515316638614	624.908498129614	608.347045837313	1009.615265509886	559.208742160884	533.244275227412	992.926935546757	451.869330580599	552.999785546090	1034.813854684610	762.041064122379	318.941221841670	955.516404174821	636.096419622800	267.215528221537	1050.157068105234	567.577041231169	327.284327882832	1058.225190114425	497.472423936451	338.931897085077	1034.840168683692	423.250076559017	334.915814779600	950.569537785030	303.384868631380	290.503596102204	1008.135379977460	196.826918397244	362.168691866503	913.598878551519	388.241165769545	561.370551814824	794.610088951527	351.055686788137	626.581338590096	775.432271231212	242.866909304776	576.019978794351	570.346699281538	179.637882117095	556.213036128692	740.603403040496	122.694707891362	586.187530291642	631.704092312915	114.231306333252	620.928234262450	808.608169189951	30.560679110360	597.693029321166	885.600260344999	39.190596053723	409.245667922102	958.092018461086	36.613650554248	327.319963208084	1042.184312744825	97.301088260726	352.190562926070	1170.021482620177	42.217478697093	321.351771096960	821.842674893520	1091.546598174339	185.741659445312	867.423047994664	834.949763596892	180.588916323340	1065.180110898757	1092.777235791906	714.870448116068	1315.613763118008	1045.300200977493	683.865740282110	
